<svg xmlns="http://www.w3.org/2000/svg" xmlns:xlink="http://www.w3.org/1999/xlink" width="500" zoomAndPan="magnify" viewBox="0 0 375 374.999991" height="500" preserveAspectRatio="xMidYMid meet" version="1.0"><defs><g/><clipPath id="1868bfcc06"><path d="M 76 37.5 L 299 37.5 L 299 337.5 L 76 337.5 Z M 76 37.5 " clip-rule="nonzero"/></clipPath></defs><rect x="-37.5" width="450" fill="#ffffff" y="-37.499999" height="449.999989" fill-opacity="1"/><rect x="-37.5" width="450" fill="#ffffff" y="-37.499999" height="449.999989" fill-opacity="1"/><g clip-path="url(#1868bfcc06)"><path fill="#000000" d="M 253.789062 44.503906 L 253.789062 121.128906 L 255.792969 121.128906 L 255.792969 121.148438 L 255.804688 121.128906 L 298.773438 121.128906 L 298.773438 44.503906 Z M 275.300781 214.910156 C 275.273438 214.855469 275.242188 214.800781 275.210938 214.746094 L 275.125 214.910156 L 254.40625 214.910156 L 254.769531 224.269531 L 254.992188 230.101562 L 250.0625 224.796875 L 249.578125 224.269531 L 248.414062 223.019531 L 247.195312 221.703125 L 244.503906 218.804688 L 240.890625 214.910156 L 227.679688 214.910156 L 227.648438 214.859375 C 227.617188 214.875 227.585938 214.894531 227.554688 214.910156 L 184.078125 214.910156 L 189.554688 220.765625 L 194.242188 225.769531 L 194.703125 226.265625 L 197.089844 228.816406 L 198.503906 230.328125 L 209.394531 241.96875 L 209.582031 242.164062 L 210.003906 242.609375 L 210.207031 242.828125 L 211.207031 243.898438 L 225.34375 259.007812 L 227.808594 261.640625 L 229.226562 263.152344 L 231.515625 265.601562 L 235.765625 270.144531 L 237.199219 271.675781 L 239.53125 274.167969 L 245.765625 280.828125 L 245.921875 281 L 246.355469 281.460938 L 252.074219 287.574219 L 254.277344 289.929688 L 255.78125 291.535156 L 257.503906 293.378906 L 260.859375 296.960938 L 263.101562 299.355469 L 263.867188 300.175781 L 266.480469 302.96875 L 267.335938 303.882812 L 268.996094 305.65625 L 274.5625 311.605469 L 279 316.351562 L 279.242188 316.609375 L 283.097656 320.726562 L 284.523438 322.25 L 284.976562 322.738281 L 290.746094 328.902344 L 298.78125 337.496094 L 298.78125 214.910156 Z M 152.667969 119.851562 L 151.148438 118.21875 L 148.589844 115.460938 L 148.574219 115.441406 L 147.335938 114.105469 L 140.109375 106.324219 L 135.480469 101.335938 L 134 99.738281 L 131.664062 97.222656 L 127.246094 92.460938 L 124.84375 89.867188 L 124.628906 89.640625 L 123.90625 88.859375 L 122.429688 87.269531 L 120.390625 85.074219 L 118.671875 83.222656 L 118.441406 82.976562 L 114.875 79.132812 L 114.8125 79.0625 L 113.242188 77.371094 L 111.730469 75.742188 L 103.332031 66.691406 L 101.941406 65.195312 L 97.125 60.007812 L 91.210938 53.628906 L 90.503906 52.863281 L 89.300781 51.566406 L 89.246094 51.507812 L 85.621094 47.617188 L 85.515625 47.5 L 84.175781 46.058594 L 78.496094 39.941406 L 78.433594 39.871094 L 76.230469 37.5 L 76.230469 121.132812 L 118.921875 121.132812 L 119.019531 121.289062 L 119.019531 121.132812 L 153.855469 121.132812 Z M 76.230469 214.910156 L 76.230469 330.484375 L 121.222656 330.484375 L 121.222656 214.910156 Z M 76.230469 214.910156 " fill-opacity="1" fill-rule="nonzero"/></g><path fill="#000000" d="M 373.546875 122.695312 L 1.460938 122.695312 C 1.273438 122.695312 1.09375 122.660156 0.921875 122.589844 C 0.75 122.519531 0.597656 122.417969 0.464844 122.285156 C 0.332031 122.152344 0.230469 122 0.160156 121.828125 C 0.0898438 121.65625 0.0546875 121.476562 0.0546875 121.289062 C 0.0546875 121.101562 0.0898438 120.921875 0.160156 120.75 C 0.230469 120.578125 0.332031 120.425781 0.464844 120.292969 C 0.597656 120.160156 0.75 120.058594 0.921875 119.988281 C 1.09375 119.914062 1.273438 119.878906 1.460938 119.878906 L 373.546875 119.878906 C 373.730469 119.878906 373.910156 119.914062 374.085938 119.988281 C 374.257812 120.058594 374.410156 120.160156 374.542969 120.292969 C 374.671875 120.425781 374.777344 120.578125 374.847656 120.75 C 374.917969 120.921875 374.953125 121.101562 374.953125 121.289062 C 374.953125 121.476562 374.917969 121.65625 374.847656 121.828125 C 374.777344 122 374.671875 122.152344 374.542969 122.285156 C 374.410156 122.417969 374.257812 122.519531 374.085938 122.589844 C 373.910156 122.660156 373.730469 122.695312 373.546875 122.695312 Z M 373.546875 122.695312 " fill-opacity="1" fill-rule="nonzero"/><path fill="#000000" d="M 373.546875 216.472656 L 1.460938 216.472656 C 1.273438 216.472656 1.09375 216.4375 0.921875 216.367188 C 0.75 216.296875 0.597656 216.195312 0.464844 216.0625 C 0.332031 215.929688 0.230469 215.777344 0.160156 215.605469 C 0.0898438 215.433594 0.0546875 215.253906 0.0546875 215.066406 C 0.0546875 214.878906 0.0898438 214.699219 0.160156 214.527344 C 0.230469 214.355469 0.332031 214.203125 0.464844 214.070312 C 0.597656 213.9375 0.75 213.835938 0.921875 213.765625 C 1.09375 213.691406 1.273438 213.65625 1.460938 213.65625 L 373.546875 213.65625 C 373.730469 213.65625 373.910156 213.691406 374.085938 213.765625 C 374.257812 213.835938 374.410156 213.9375 374.542969 214.070312 C 374.671875 214.203125 374.777344 214.355469 374.847656 214.527344 C 374.917969 214.699219 374.953125 214.878906 374.953125 215.066406 C 374.953125 215.253906 374.917969 215.433594 374.847656 215.605469 C 374.777344 215.777344 374.671875 215.929688 374.542969 216.0625 C 374.410156 216.195312 374.257812 216.296875 374.085938 216.367188 C 373.910156 216.4375 373.730469 216.472656 373.546875 216.472656 Z M 373.546875 216.472656 " fill-opacity="1" fill-rule="nonzero"/><g fill="#b20710" fill-opacity="1"><g transform="translate(49.766078, 185.000436)"><g><path d="M 35.890625 -34.65625 L 35.890625 0 L 29.296875 0 L 12.03125 -21.03125 L 12.03125 0 L 4.109375 0 L 4.109375 -34.65625 L 10.734375 -34.65625 L 27.96875 -13.609375 L 27.96875 -34.65625 Z M 35.890625 -34.65625 "/></g></g></g><g fill="#b20710" fill-opacity="1"><g transform="translate(89.75799, 185.000436)"><g><path d="M 30.9375 -6.4375 L 30.9375 0 L 4.109375 0 L 4.109375 -34.65625 L 30.296875 -34.65625 L 30.296875 -28.21875 L 12.078125 -28.21875 L 12.078125 -20.6875 L 28.171875 -20.6875 L 28.171875 -14.453125 L 12.078125 -14.453125 L 12.078125 -6.4375 Z M 30.9375 -6.4375 "/></g></g></g><g fill="#b20710" fill-opacity="1"><g transform="translate(122.969089, 185.000436)"><g><path d="M 56.484375 -34.65625 L 45.140625 0 L 36.53125 0 L 28.90625 -23.46875 L 21.03125 0 L 12.46875 0 L 1.09375 -34.65625 L 9.40625 -34.65625 L 17.21875 -10.296875 L 25.390625 -34.65625 L 32.8125 -34.65625 L 40.734375 -10.09375 L 48.8125 -34.65625 Z M 56.484375 -34.65625 "/></g></g></g><g fill="#b20710" fill-opacity="1"><g transform="translate(180.531701, 185.000436)"><g><path d="M 15.5 0.59375 C 12.757812 0.59375 10.109375 0.222656 7.546875 -0.515625 C 4.992188 -1.265625 2.941406 -2.234375 1.390625 -3.421875 L 4.109375 -9.453125 C 5.597656 -8.367188 7.363281 -7.492188 9.40625 -6.828125 C 11.445312 -6.171875 13.492188 -5.84375 15.546875 -5.84375 C 17.816406 -5.84375 19.492188 -6.179688 20.578125 -6.859375 C 21.671875 -7.535156 22.21875 -8.429688 22.21875 -9.546875 C 22.21875 -10.378906 21.894531 -11.066406 21.25 -11.609375 C 20.613281 -12.148438 19.789062 -12.585938 18.78125 -12.921875 C 17.78125 -13.253906 16.421875 -13.617188 14.703125 -14.015625 C 12.054688 -14.640625 9.890625 -15.265625 8.203125 -15.890625 C 6.523438 -16.515625 5.082031 -17.519531 3.875 -18.90625 C 2.675781 -20.289062 2.078125 -22.140625 2.078125 -24.453125 C 2.078125 -26.460938 2.617188 -28.285156 3.703125 -29.921875 C 4.796875 -31.554688 6.4375 -32.851562 8.625 -33.8125 C 10.820312 -34.769531 13.507812 -35.25 16.6875 -35.25 C 18.894531 -35.25 21.050781 -34.984375 23.15625 -34.453125 C 25.269531 -33.921875 27.117188 -33.160156 28.703125 -32.171875 L 26.234375 -26.09375 C 23.035156 -27.90625 19.832031 -28.8125 16.625 -28.8125 C 14.382812 -28.8125 12.726562 -28.445312 11.65625 -27.71875 C 10.582031 -26.988281 10.046875 -26.03125 10.046875 -24.84375 C 10.046875 -23.65625 10.664062 -22.769531 11.90625 -22.1875 C 13.144531 -21.613281 15.035156 -21.050781 17.578125 -20.5 C 20.210938 -19.863281 22.367188 -19.234375 24.046875 -18.609375 C 25.734375 -17.984375 27.175781 -16.992188 28.375 -15.640625 C 29.582031 -14.285156 30.1875 -12.453125 30.1875 -10.140625 C 30.1875 -8.160156 29.632812 -6.351562 28.53125 -4.71875 C 27.425781 -3.09375 25.769531 -1.800781 23.5625 -0.84375 C 21.351562 0.113281 18.664062 0.59375 15.5 0.59375 Z M 15.5 0.59375 "/></g></g></g><g fill="#b20710" fill-opacity="1"><g transform="translate(212.109468, 185.000436)"><g><path d="M 12.125 -28.21875 L 12.125 -19.0625 L 28.171875 -19.0625 L 28.171875 -12.625 L 12.125 -12.625 L 12.125 0 L 4.109375 0 L 4.109375 -34.65625 L 30.296875 -34.65625 L 30.296875 -28.21875 Z M 12.125 -28.21875 "/></g></g></g><g fill="#b20710" fill-opacity="1"><g transform="translate(243.736722, 185.000436)"><g><path d="M 4.109375 -34.65625 L 12.125 -34.65625 L 12.125 -6.53125 L 29.5 -6.53125 L 29.5 0 L 4.109375 0 Z M 4.109375 -34.65625 "/></g></g></g><g fill="#b20710" fill-opacity="1"><g transform="translate(273.631653, 185.000436)"><g><path d="M 4.109375 -34.65625 L 12.125 -34.65625 L 12.125 0 L 4.109375 0 Z M 4.109375 -34.65625 "/></g></g></g><g fill="#b20710" fill-opacity="1"><g transform="translate(289.865989, 185.000436)"><g><path d="M 25.9375 0 L 17.578125 -12.03125 L 9.359375 0 L 0.15625 0 L 12.96875 -17.625 L 0.796875 -34.65625 L 9.90625 -34.65625 L 17.875 -23.40625 L 25.6875 -34.65625 L 34.359375 -34.65625 L 22.28125 -17.921875 L 35.1875 0 Z M 25.9375 0 "/></g></g></g></svg>